HIERARCHY
ROOT Hips
{
	OFFSET 0.000000 0.000000 0.000000
	CHANNELS 6 Xposition Yposition Zposition Zrotation Yrotation Xrotation 
	JOINT LHipJoint
	{
		OFFSET 0.000000 0.000000 0.000000
		CHANNELS 3 Zrotation Yrotation Xrotation
		JOINT LeftUpLeg
		{
			OFFSET 1.363060 -1.794630 0.839290
			CHANNELS 3 Zrotation Yrotation Xrotation
			JOINT LeftLeg
			{
				OFFSET 2.448110 -6.726130 0.000000
				CHANNELS 3 Zrotation Yrotation Xrotation
				JOINT LeftFoot
				{
					OFFSET 2.562200 -7.039590 0.000000
					CHANNELS 3 Zrotation Yrotation Xrotation
					JOINT LeftToeBase
					{
						OFFSET 0.157640 -0.433110 2.322550
						CHANNELS 3 Zrotation Yrotation Xrotation
						End Site
						{
							OFFSET 0.000000 0.000000 0.000000
						}
					}
				}
			}
		}
	}
	JOINT RHipJoint
	{
		OFFSET 0.000000 0.000000 0.000000
		CHANNELS 3 Zrotation Yrotation Xrotation
		JOINT RightUpLeg
		{
			OFFSET -1.305520 -1.794630 0.839290
			CHANNELS 3 Zrotation Yrotation Xrotation
			JOINT RightLeg
			{
				OFFSET -2.542530 -6.985550 0.000000
				CHANNELS 3 Zrotation Yrotation Xrotation
				JOINT RightFoot
				{
					OFFSET -2.568260 -7.056230 0.000000
					CHANNELS 3 Zrotation Yrotation Xrotation
					JOINT RightToeBase
					{
						OFFSET -0.164730 -0.452590 2.363150
						CHANNELS 3 Zrotation Yrotation Xrotation
						End Site
						{
							OFFSET 0.000000 0.000000 0.000000
						}
					}
				}
			}
		}
	}
}
MOTION
Frames: 17
Frame Time: 0.008333
1.678521 17.793145 -1.107291 -170.494333 77.968866 -155.628772 -11.108077 3.735478 3.694915 -4.722214 -2.732848 -3.159000 -0.962449 0.003867 9.852645 0.673234 5.435325 5.425605 1.294101 0.000000 -45.758500 9.577053 -1.167682 0.653133 8.156835 -10.919743 -38.680129 1.916644 -2.445414 31.343142 -0.114407 -0.030597 9.229846 -0.393100 -0.000000 -61.411200
1.920510 17.912977 -1.090964 -169.479860 77.336834 -154.636688 -11.295484 3.914578 3.642928 -3.907802 -1.727754 -2.768060 -0.780457 0.081851 9.480840 0.832452 6.773941 7.349257 1.777600 -0.000000 -42.298100 9.466290 -1.351775 0.897690 8.642332 -10.735456 -37.425276 2.238776 -2.059312 26.589122 0.134872 1.078016 11.678785 -0.081500 0.000000 -63.005200
2.162082 18.019528 -1.072801 -168.895654 76.721181 -154.053262 -11.467459 4.057351 3.552615 -3.195817 -0.594422 -2.594436 -0.616584 0.151914 9.656733 1.020976 8.237824 8.597027 2.284500 -0.000000 -37.920500 9.377993 -1.503437 1.190019 8.915877 -10.393251 -36.175507 2.549304 -1.660567 22.008122 0.368085 2.124715 13.830264 0.282600 0.000000 -64.010900
2.403026 18.111966 -1.052785 -168.646202 76.137499 -153.783705 -11.617818 4.165519 3.433409 -2.580165 0.601335 -2.577961 -0.474130 0.213340 10.308742 1.226934 9.766320 9.223484 2.775200 0.000001 -33.088200 9.311491 -1.614998 1.519981 8.985114 -9.906611 -34.978878 2.836914 -1.258624 17.708954 0.577776 3.071564 15.638737 0.661700 0.000000 -64.425300
2.643150 18.189891 -1.031206 -168.635240 75.598037 -153.734755 -11.743745 4.245562 3.298289 -2.049611 1.781961 -2.661105 -0.353543 0.269760 11.364492 1.440342 11.296894 9.338211 3.212100 -0.000000 -28.428101 9.263687 -1.684936 1.871598 8.881127 -9.313517 -33.885892 3.092297 -0.866609 13.793172 0.760504 3.900101 17.087502 1.024800 -0.000001 -64.307999
2.882291 18.253291 -1.008404 -168.784534 75.113442 -153.833142 -11.844628 4.306680 3.161232 -1.594702 2.872138 -2.796616 -0.253273 0.326923 12.764164 1.652419 12.769100 9.072029 3.567499 -0.000000 -24.511000 9.231210 -1.716992 2.225601 8.649040 -8.671024 -32.943408 3.310070 -0.499610 10.347434 0.917056 4.617998 18.186999 1.355900 0.000000 -63.747099
3.120291 18.302545 -0.984938 -169.010435 74.693752 -154.001074 -11.924285 4.357896 3.032003 -1.200764 3.827294 -2.959381 -0.171816 0.391140 14.474496 1.853309 14.112879 8.531822 3.816900 0.000000 -21.581001 9.209227 -1.720253 2.566880 8.342415 -8.023635 -32.176906 3.489053 -0.169586 7.411975 1.049209 5.232676 18.990860 1.646299 0.000000 -62.920900
3.357107 18.338231 -0.961363 -169.235950 74.347460 -154.164433 -11.989521 4.406290 2.914436 -0.851272 4.637497 -3.148836 -0.108510 0.468353 16.484132 2.032687 15.259127 7.796368 3.941701 0.000000 -19.622600 9.192424 -1.706411 2.889222 8.006597 -7.383508 -31.587198 3.630351 0.116680 4.978256 1.157422 5.733432 19.584581 1.886300 0.000000 -62.007000
3.592606 18.360800 -0.937540 -169.498580 74.078921 -154.369846 -12.036678 4.460039 2.813813 -0.569877 5.276151 -3.348955 -0.062277 0.562138 18.768659 2.185515 16.189814 6.935366 3.948600 -0.000000 -18.490101 9.185641 -1.680414 3.175102 7.664565 -6.822744 -31.202813 3.736732 0.345488 3.106060 1.249707 6.193612 19.994714 2.106600 0.000000 -61.031700
3.826640 18.370868 -0.914094 -169.706429 73.891635 -154.523578 -12.078142 4.520518 2.723052 -0.327546 5.787210 -3.592668 -0.031613 0.677442 21.338055 2.304344 16.860008 5.989624 3.836900 0.000000 -17.986900 9.181190 -1.655339 3.436620 7.337203 -6.275949 -30.975077 3.809270 0.521560 1.697121 1.320482 6.541423 20.349320 2.279700 -0.000000 -60.214400
4.058935 18.368813 -0.891183 -169.851453 73.783762 -154.619995 -12.117643 4.588832 2.637572 -0.124819 6.184262 -3.886765 -0.012740 0.816968 24.176254 2.389040 17.282901 5.000703 3.629900 0.000001 -17.936600 9.178497 -1.636918 3.676248 7.021793 -5.719880 -30.874025 3.848015 0.644902 0.706910 1.368741 6.760076 20.715263 2.401900 0.000000 -59.631099
4.289273 18.355002 -0.868890 -169.940239 73.751155 -154.667134 -12.157430 4.664410 2.552561 0.033210 6.477684 -4.232193 -0.000092 0.981875 27.256027 2.443901 17.500205 4.002164 3.358900 0.000000 -18.180200 9.177997 -1.628231 3.897528 6.703879 -5.128013 -30.865731 3.851842 0.717444 0.087356 1.393448 6.836815 21.137530 2.469300 0.000001 -59.327000
4.517303 18.329649 -0.846921 -170.046131 73.785718 -154.749815 -12.191497 4.748052 2.466921 0.115662 6.656946 -4.603135 0.013586 1.170836 30.529641 2.478504 17.589677 3.021827 3.060700 -0.000000 -18.563201 9.186969 -1.625394 4.086863 6.371016 -4.553743 -30.951436 3.821592 0.733876 -0.122810 1.402635 6.860202 21.570476 2.520000 0.000000 -59.213900
4.742746 18.293067 -0.825384 -170.165307 73.880625 -154.867660 -12.222819 4.835737 2.373328 0.125050 6.739146 -4.985952 0.035493 1.382560 33.952556 2.502297 17.620043 2.072991 2.760199 0.000000 -18.936600 9.203784 -1.627707 4.249855 6.002344 -3.956103 -31.077865 3.755256 0.702690 0.005792 1.394590 6.813610 22.015128 2.544200 0.000000 -59.309600
4.965390 18.245441 -0.804116 -170.331570 74.030264 -155.060168 -12.249603 4.924679 2.267613 0.050025 6.736011 -5.357447 0.072112 1.613615 37.470508 2.526486 17.672341 1.164467 2.478400 0.000001 -19.184799 9.230102 -1.630804 4.385708 5.579787 -3.334172 -31.220257 3.652688 0.629237 0.454276 1.373075 6.734140 22.409359 2.553300 0.000000 -59.572900
5.185009 18.187008 -0.783161 -170.539989 74.228132 -155.328054 -12.273866 5.010380 2.142884 -0.101351 6.671314 -5.692934 0.128379 1.860607 41.030096 2.560881 17.814684 0.297803 2.225900 -0.000000 -19.214900 9.262567 -1.631384 4.497760 5.092206 -2.660606 -31.333266 3.515418 0.524290 1.168613 1.339482 6.625998 22.690772 2.541899 -0.000000 -59.992800
5.401632 18.117803 -0.762233 -170.814007 74.470920 -155.697183 -12.293871 5.090940 1.997889 -0.331236 6.567656 -5.975299 0.207249 2.118316 44.581526 2.613806 18.104862 -0.525958 2.007500 0.000000 -19.002100 9.300452 -1.624754 4.585775 4.541127 -1.947250 -31.418194 3.348653 0.393626 2.162200 1.301249 6.542440 22.736355 2.524900 -0.000001 -60.493400
